<svg width="269" height="269" viewBox="0 0 269 269" fill="none" xmlns="http://www.w3.org/2000/svg">
<g clip-path="url(#clip0_4_267)">
<path d="M134.579 269.085L184.075 103.844H85.0815L134.578 269.085H134.579Z" fill="#E24329"/>
<path d="M134.579 269.084L85.0816 103.843H15.7153L134.579 269.084Z" fill="#FC6D26"/>
<path d="M15.7154 103.843L0.674492 154.059C0.00572808 156.292 0.00563581 158.697 0.674229 160.929C1.34282 163.162 2.64578 165.107 4.39636 166.487L134.579 269.085L15.7143 103.844L15.7154 103.843Z" fill="#FCA326"/>
<path d="M15.7153 103.844H85.0816L55.272 4.32001C53.7378 -0.80125 47.0591 -0.80011 45.526 4.32001L15.7153 103.844Z" fill="#E24329"/>
<path d="M134.579 269.084L184.075 103.843H253.442L134.578 269.084H134.579Z" fill="#FC6D26"/>
<path d="M253.442 103.843L268.483 154.059C269.151 156.292 269.151 158.697 268.483 160.929C267.814 163.162 266.511 165.107 264.76 166.487L134.579 269.085L253.442 103.844V103.843Z" fill="#FCA326"/>
<path d="M253.442 103.844H184.075L213.885 4.32001C215.42 -0.80125 222.098 -0.80011 223.631 4.32001L253.442 103.844Z" fill="#E24329"/>
</g>
<defs>
<clipPath id="clip0_4_267">
<rect width="269" height="269" fill="white"/>
</clipPath>
</defs>
</svg>
