<svg width="250" height="250" viewBox="0 0 250 250" fill="none" xmlns="http://www.w3.org/2000/svg">
<g clip-path="url(#clip0_33_5)">
<path d="M83.3335 79.4667C84.4951 78.7299 85.8211 78.2921 87.1931 78.1924C88.5651 78.0928 89.9404 78.3343 91.1963 78.8954C92.4522 79.4565 93.5498 80.3198 94.3909 81.4083C95.232 82.4967 95.7906 83.7765 96.0169 85.1334L98.3502 99.0667C98.6165 100.652 98.4183 102.281 97.7795 103.757C97.1407 105.233 96.0887 106.492 94.7502 107.383L86.4002 112.95C84.3612 106.04 83.3284 98.8716 83.3335 91.6667V79.4667ZM158.334 166.667C151.129 166.672 143.96 165.639 137.05 163.6L142.617 155.267C143.506 153.925 144.764 152.87 146.24 152.228C147.716 151.586 149.346 151.385 150.934 151.65L164.867 153.983C166.224 154.21 167.503 154.768 168.592 155.609C169.68 156.45 170.544 157.548 171.105 158.804C171.666 160.06 171.907 161.435 171.808 162.807C171.708 164.179 171.27 165.505 170.534 166.667H158.334Z" fill="black"/>
<path fill-rule="evenodd" clip-rule="evenodd" d="M0.000128558 125C0.00137369 97.064 9.36064 69.9335 26.5842 47.9387C43.8077 25.9439 67.9027 10.3526 95.0235 3.65319C122.144 -3.04623 150.728 -0.467588 176.212 10.9776C201.695 22.4227 222.611 42.0746 235.62 66.7969C248.629 91.5191 252.981 119.887 247.983 147.372C242.984 174.857 228.923 199.876 208.043 218.435C187.162 236.994 160.667 248.023 132.785 249.763C104.903 251.503 77.2423 243.853 54.2168 228.033L12.0501 249.117C10.4876 249.891 8.72151 250.155 7.00071 249.873C5.27992 249.59 3.69109 248.775 2.45801 247.542C1.22494 246.309 0.409761 244.72 0.127291 242.999C-0.155179 241.279 0.109295 239.513 0.883462 237.95L21.9668 195.783C7.62587 174.967 -0.0361957 150.278 0.000128558 125V125ZM70.5001 68L73.9335 65.7C77.4066 63.3866 81.4035 61.9794 85.5599 61.6068C89.7163 61.2341 93.8998 61.9078 97.7291 63.5664C101.558 65.2251 104.912 67.8158 107.483 71.1026C110.054 74.3893 111.762 78.2674 112.45 82.3833L114.783 96.3333C115.576 101.086 114.978 105.966 113.062 110.386C111.146 114.806 107.993 118.579 103.983 121.25L93.0168 128.55C99.7377 140.432 109.559 150.265 121.433 157L128.767 146.033C131.437 142.027 135.206 138.876 139.624 136.96C144.041 135.044 148.917 134.445 153.667 135.233L167.617 137.567C171.733 138.255 175.611 139.963 178.898 142.534C182.184 145.105 184.775 148.458 186.434 152.288C188.092 156.117 188.766 160.301 188.393 164.457C188.021 168.613 186.613 172.61 184.3 176.083L182 179.533C181.245 180.704 180.209 181.666 178.986 182.333C177.763 183 176.393 183.35 175 183.35H158.333C146.294 183.35 134.373 180.978 123.25 176.371C112.128 171.763 102.022 165.009 93.5094 156.496C84.9972 147.982 78.2454 137.875 73.6397 126.751C69.034 115.628 66.6646 103.706 66.6668 91.6667V75C66.6691 73.6057 67.0213 72.2342 67.691 71.0113C68.3607 69.7883 69.3266 68.7529 70.5001 68Z" fill="black"/>
</g>
<defs>
<clipPath id="clip0_33_5">
<rect width="250" height="250" fill="white"/>
</clipPath>
</defs>
</svg>
