<svg width="35" height="35" viewBox="0 0 35 35" fill="none" xmlns="http://www.w3.org/2000/svg">
<rect x="3" y="3" width="29" height="29" fill="#383838"/>
<path fill-rule="evenodd" clip-rule="evenodd" d="M1.4585 4.13879C1.4585 3.4279 1.7409 2.74613 2.24357 2.24345C2.74625 1.74078 3.42802 1.45838 4.13891 1.45838H30.8585C31.2108 1.4578 31.5597 1.52672 31.8854 1.66118C32.211 1.79565 32.5069 1.99302 32.7561 2.24199C33.0054 2.49097 33.2031 2.78666 33.3379 3.11214C33.4727 3.43762 33.542 3.7865 33.5418 4.13879V30.8584C33.5422 31.2107 33.4731 31.5597 33.3385 31.8854C33.2039 32.211 33.0064 32.5069 32.7573 32.7561C32.5082 33.0053 32.2124 33.203 31.8868 33.3378C31.5613 33.4726 31.2123 33.5419 30.8599 33.5417H4.13891C3.78679 33.5417 3.43812 33.4723 3.11282 33.3375C2.78753 33.2027 2.49198 33.0052 2.24306 32.7561C1.99414 32.5071 1.79673 32.2114 1.66211 31.886C1.52749 31.5607 1.4583 31.212 1.4585 30.8598V4.13879ZM14.1577 13.6909H18.502V15.8725C19.1291 14.6184 20.7333 13.4896 23.1439 13.4896C27.7654 13.4896 28.8606 15.9878 28.8606 20.5713V29.0617H24.1837V21.6155C24.1837 19.005 23.5566 17.5321 21.9641 17.5321C19.7547 17.5321 18.836 19.1203 18.836 21.6155V29.0617H14.1577V13.6909ZM6.13683 28.8619H10.8152V13.4896H6.13683V28.8605V28.8619ZM11.4845 8.47588C11.4934 8.87644 11.4221 9.27473 11.2749 9.64738C11.1277 10.02 10.9075 10.3595 10.6274 10.6459C10.3472 10.9323 10.0126 11.1599 9.64333 11.3153C9.27401 11.4706 8.87739 11.5507 8.47672 11.5507C8.07606 11.5507 7.67944 11.4706 7.31012 11.3153C6.94081 11.1599 6.60625 10.9323 6.32607 10.6459C6.0459 10.3595 5.82576 10.02 5.67856 9.64738C5.53137 9.27473 5.46009 8.87644 5.46891 8.47588C5.48623 7.68962 5.81072 6.94141 6.37291 6.39146C6.9351 5.84152 7.69028 5.53357 8.47672 5.53357C9.26317 5.53357 10.0183 5.84152 10.5805 6.39146C11.1427 6.94141 11.4672 7.68962 11.4845 8.47588Z" fill="black"/>
</svg>
