<svg width="312" height="269" viewBox="0 0 312 269" fill="none" xmlns="http://www.w3.org/2000/svg">
<g clip-path="url(#clip0_14_20)">
<path d="M70.9093 267.676V129.817L33.5242 90.7032L0 68.9978V243.347C0 256.809 9.53672 267.676 21.2733 267.676H70.9093Z" fill="black"/>
<path d="M241.091 267.676H290.727C302.499 267.676 312 256.768 312 243.347V68.9993L274.029 93.8602L241.091 129.817V267.676Z" fill="black"/>
<path d="M70.9093 129.817L65.8223 75.9513L70.9093 24.3967L156 97.3807L241.091 24.3967L246.781 73.168L241.091 129.817L156 202.801L70.9093 129.817Z" fill="#1D1D1D"/>
<path d="M241.091 24.3968V129.817L312 68.9979V36.5604C312 6.47556 281.97 -10.6749 260.947 7.36758L241.091 24.3968Z" fill="#121212"/>
<path d="M0 68.9978L32.6125 96.971L70.9093 129.817V24.3967L51.0534 7.36749C29.9934 -10.6764 0 6.47547 0 36.5589V68.9964V68.9978Z" fill="#111111"/>
</g>
<defs>
<clipPath id="clip0_14_20">
<rect width="312" height="269" fill="white"/>
</clipPath>
</defs>
</svg>
